<svg xmlns="http://www.w3.org/2000/svg" version="1.1" viewBox="3.0 -5.0 96.0 96.0">
 <g>
  <path d="m93.203 45.066-14.746-3.1875c-0.29297-0.0625-0.55469-0.20312-0.76172-0.41797l-14.438-14.859c-0.87109-0.89844-2.0898-1.4102-3.3398-1.4102h-30.016c-1.4531 0-2.8047 0.66406-3.7109 1.8359l-10.684 14.062c-0.28125 0.38281-0.71875 0.60156-1.1953 0.60156h-6.5469c-2.5586 0-4.6406 2.082-4.6406 4.6406v13.734c0 2.1328 1.4453 3.9844 3.5078 4.5l5.832 1.4844c0.089844 0.023438 0.17969 0.015625 0.26953 0.03125 0.70703 4.9297 4.9453 8.7344 10.066 8.7344 5.082 0 9.2969-3.75 10.047-8.625h34.238c0.75391 4.875 4.9648 8.625 10.047 8.625 5.082 0 9.2969-3.75 10.047-8.625h0.78125l4.4883-0.20312c2.4805-0.11719 4.4258-2.1641 4.4258-4.6562v-11.719c0-2.1875-1.5469-4.1016-3.6719-4.543zm-70.406 26.621c-3.8828 0-7.043-3.1523-7.0547-7.0352 0-0.007813 0.007812-0.015625 0.007812-0.027344 0-0.007812-0.003906-0.015625-0.003906-0.023438 0.015625-3.875 3.1719-7.0273 7.0547-7.0273 3.8828 0 7.0547 3.1641 7.0547 7.0547s-3.1641 7.0547-7.0547 7.0547zm54.336 0c-3.8906 0-7.0547-3.1641-7.0547-7.0547v-0.007812-0.003906c0.003906-3.8867 3.168-7.0469 7.0547-7.0469 3.8867 0 7.0547 3.1641 7.0547 7.0547s-3.1641 7.0547-7.0547 7.0547zm16.617-10.359c0 0.82031-0.63672 1.4961-1.4453 1.5312l-4.4141 0.20312h-0.71094c-0.75781-4.8672-4.9688-8.6094-10.047-8.6094-5.0781 0-9.2891 3.7422-10.047 8.6094h-34.242c-0.75781-4.8672-4.9688-8.6094-10.047-8.6094-5.0234 0-9.1953 3.6602-10.023 8.4492l-5.3828-1.3711c-0.67578-0.16797-1.1445-0.77344-1.1445-1.4688v-13.734c0-0.83594 0.67969-1.5156 1.5156-1.5156h6.5469c1.457 0 2.8438-0.69922 3.6953-1.8516l10.664-14.035c0.30469-0.39062 0.75-0.61328 1.2344-0.61328h30.016c0.41797 0 0.80859 0.16406 1.0977 0.46484l14.434 14.855c0.64062 0.66406 1.457 1.1133 2.3555 1.3008l14.746 3.1914c0.69141 0.14453 1.1953 0.76953 1.1953 1.4844v11.719z"/>
  <path d="m68.516 42.02h-22.68v-10.062c0-0.86328-0.69922-1.5625-1.5625-1.5625-0.86328 0-1.5625 0.69922-1.5625 1.5625v10.062h-18.586c-0.86328 0-1.5625 0.69922-1.5625 1.5625s0.69922 1.5625 1.5625 1.5625h44.391c0.86328 0 1.5625-0.69922 1.5625-1.5625s-0.69922-1.5625-1.5625-1.5625z"/>
  <path d="m49.293 47.074h-1.7969c-0.86328 0-1.5625 0.69922-1.5625 1.5625s0.69922 1.5625 1.5625 1.5625h1.7969c0.86328 0 1.5625-0.69922 1.5625-1.5625s-0.69922-1.5625-1.5625-1.5625z"/>
 </g></svg>