<svg xmlns="http://www.w3.org/2000/svg" xmlns:xlink="http://www.w3.org/1999/xlink" version="1.1" x="0px" y="0px" viewBox="0 0 32 32" fill="rgb(55, 55, 55)" style="enable-background:new 0 0 32 32;" xml:space="preserve"><g><g><g><path d="M21.56,10.41c-0.59,0.38-0.75,1.16-0.38,1.75c1.48,2.3,1.5,5.28,0.05,7.6c-0.37,0.59-0.19,1.37,0.4,1.74     c0.21,0.13,0.44,0.19,0.67,0.19c0.42,0,0.83-0.21,1.07-0.59c1.97-3.15,1.94-7.19-0.07-10.31C22.93,10.2,22.14,10.03,21.56,10.41z      M27.72,8.1c-0.37-0.59-1.15-0.76-1.74-0.39c-0.59,0.37-0.77,1.15-0.39,1.74c2.57,4.07,2.52,9.29-0.14,13.31     c-0.38,0.58-0.22,1.37,0.36,1.75c0.21,0.14,0.46,0.21,0.69,0.21c0.41,0,0.81-0.2,1.06-0.57C30.75,19.3,30.82,13.01,27.72,8.1z"/><path d="M16.13,4.43l-7.34,5.67h-5.1C2.75,10.11,2,10.86,2,11.79v8.42c0,0.93,0.75,1.68,1.68,1.68h5.1l7.34,5.67     c1.11,0.86,2.71,0.07,2.71-1.33V5.76C18.84,4.37,17.24,3.58,16.13,4.43z"/></g></g></g></svg>