<svg xmlns="http://www.w3.org/2000/svg" version="1.1" viewBox="-5.0 -10.0 110.0 110.0" fill="black">
 <g>
  <path d="m74.5 67.5c-0.69922-0.80078-1.8984-0.80078-2.6992-0.19922-0.69922 0.69922-0.80078 1.8984-0.10156 2.6992l14 15.699c0.5 0.60156 0.80078 1.3008 0.69922 2.1016-0.10156 0.80078-0.39844 1.3984-1 1.8984l-4.1992 3.3984c-0.60156 0.5-1.3008 0.69922-2.1016 0.60156-0.80078-0.10156-1.3984-0.5-1.8984-1.1016l-18.598-24.797c-0.60156-0.80078-1.8008-1-2.6992-0.39844-0.80078 0.60156-1 1.8008-0.39844 2.6992l18.699 24.801c1.1016 1.3984 2.6992 2.3008 4.5 2.5h0.80078c1.5 0 3-0.5 4.1992-1.5l4.1992-3.3984c1.3984-1.1992 2.1992-2.8008 2.3984-4.6016 0.10156-1.8008-0.5-3.5-1.6992-4.8984z"/>
  <path d="m35 53.301h0.19922c0.89844 0 1.8008-0.69922 1.8984-1.6992 0.10156-1-0.60156-2-1.6992-2.1016-2.8008-0.39844-5.3984-1.8008-7.3008-4.1016l-17-20.699c-1.1016-1.3984-0.89844-3.3984 0.39844-4.6016 1.3008-1.1016 3.5-0.89844 4.6016 0.5l13.199 16c0.69922 0.80078 1.8984 0.89844 2.6992 0.30078 0.80078-0.69922 0.89844-1.8984 0.30078-2.6992 0 0-13.199-16-13.199-16-0.60156-0.69922-0.80078-1.5-0.69922-2.3984 0.10156-0.89844 0.5-1.6016 1.1992-2.1992 1.3008-1.1016 3.5-0.89844 4.6016 0.39844l13.199 16.102c0.69922 0.80078 1.8984 0.89844 2.6992 0.30078 0.80078-0.69922 0.89844-1.8984 0.30078-2.6992l-13.398-16.004c-0.5-0.69922-0.80078-1.5-0.69922-2.3984 0.10156-0.89844 0.5-1.6016 1.1016-2.1992 1.3984-1.1016 3.4961-0.90234 4.5977 0.5l17 20.699c0.80078 1 1.3984 2 1.8008 3.1016 0.30078 0.80078 1 1.1992 1.8008 1.1992 0.19922 0 0.39844 0 0.60156-0.10156 1-0.39844 1.5-1.3984 1.1016-2.3984-0.5-1.3984-1.3008-2.8008-2.3984-4.1992l-17-20.699c-2.3984-2.8984-6.8984-3.3984-9.8984-1-1.3984 1.1992-2.3008 2.8984-2.5 4.6992v0.30078c-1.8984-0.30078-3.8984 0.19922-5.3984 1.3984-1.5 1.1992-2.3984 2.8984-2.6016 4.6992v0.30078c-1.8984-0.30078-3.8984 0.19922-5.3984 1.3984-3 2.5-3.3984 6.8984-1 9.8984l17 20.699c2.5898 3.2031 6.0898 5.2031 9.8906 5.7031z"/>
  <path d="m90.699 5.8984c-0.60156-1.8008-2.1016-3-3.8984-3.3984-1.8008-0.30078-3.6992 0.39844-4.8984 1.8008l-31.301 38.199c-9.1992 11.199-17.801 21-28.898 32.602l-6 6.8984c-1.3008 1.5-1.8984 3.3008-1.6992 5.1992 0.19922 1.8984 1.1016 3.6016 2.6016 4.8984l4.3984 3.6016c1.3008 1 2.8984 1.6016 4.5 1.6016 0.30078 0 0.60156 0 0.89844-0.10156 1.8984-0.30078 3.6992-1.3008 4.8008-2.8984l3.1992-4.5c6.8008-9.3984 16.699-23.398 22.301-30.602l5.5 3.8984c3.6992 2.3008 8.3984 1.3008 10.801-2.3008 3.6016-5.3984 12.5-19.398 17.5-28.301 4.7969-8.3945 2.6953-19.098 0.19531-26.598zm-3.3984 24.801c-4.9023 8.8008-13.801 22.699-17.301 28.102-1.1992 1.8984-3.6992 2.3984-5.5 1.3008l-6.8984-4.8984c-0.80078-0.60156-1.8984-0.39844-2.6016 0.39844-5.3008 6.6992-16.301 22-23.602 32.102l-3.1992 4.5c-0.5 0.69922-1.3008 1.1992-2.1992 1.3008-0.89844 0.10156-1.8008-0.10156-2.5-0.69922l-4.3984-3.6016c-0.69922-0.60156-1.1016-1.3984-1.1992-2.3008-0.10156-0.89844 0.19922-1.8008 0.80078-2.3984l5.8984-6.8008c11-11.699 19.699-21.5 29-32.801l31.199-38.102c0.30078-0.39844 0.69922-0.5 1-0.5h0.30078c0.19922 0 0.80078 0.19922 1 0.89844 1.8984 5.5 4.3984 15.902 0.19922 23.5z"/>
 </g></svg>