<svg xmlns="http://www.w3.org/2000/svg" version="1.1" viewBox="-5.0 -10.0 110.0 110.0">
 <g fill-rule="evenodd">
  <path d="m11.637 12.891-1.2422 3.3516-3.3516 1.2383c-1.4648 0.54297-2.4375 1.9414-2.4375 3.5039s0.97266 2.9609 2.4375 3.5039l3.3516 1.2383 1.2422 3.3516c0.54297 1.4648 1.9414 2.4375 3.5039 2.4375s2.9609-0.97266 3.5039-2.4375l1.2422-3.3516 3.3516-1.2383c1.4648-0.54297 2.4375-1.9414 2.4375-3.5039s-0.97266-2.9609-2.4375-3.5039l-3.3516-1.2383-1.2422-3.3516c-0.54297-1.4648-1.9414-2.4375-3.5039-2.4375s-2.9609 0.97266-3.5039 2.4375zm2.9297 1.0859c0.089844-0.23828 0.31641-0.39844 0.57031-0.39844 0.25391 0 0.48438 0.16016 0.57031 0.39844 0 0 1.4883 4.0234 1.4883 4.0234 0.15625 0.42578 0.49609 0.76562 0.92188 0.92188l4.0234 1.4883c0.23828 0.089844 0.39844 0.31641 0.39844 0.57031 0 0.25391-0.16016 0.48438-0.39844 0.57031l-4.0234 1.4883c-0.42969 0.16016-0.76563 0.49609-0.92188 0.92188l-1.4883 4.0234c-0.089843 0.23828-0.31641 0.39844-0.57031 0.39844-0.25391 0-0.48438-0.16016-0.57031-0.39844l-1.4883-4.0234c-0.15625-0.42969-0.49609-0.76563-0.92188-0.92188l-4.0234-1.4883c-0.23828-0.089843-0.39844-0.31641-0.39844-0.57031 0-0.25391 0.16016-0.48438 0.39844-0.57031l4.0234-1.4883c0.42969-0.16016 0.76562-0.49609 0.92188-0.92188z"/>
  <path d="m65.645 81.605h-13.344c-0.86328 0-1.5625 0.69922-1.5625 1.5625s0.69922 1.5625 1.5625 1.5625h13.344c0.86328 0 1.5625-0.69922 1.5625-1.5625s-0.69922-1.5625-1.5625-1.5625zm-28.184-39.129v-34.227c0-0.73828 0.29297-1.4453 0.81641-1.9688 0.51953-0.51953 1.2305-0.81641 1.9648-0.81641h51.84c0.73828 0 1.4453 0.29297 1.9648 0.81641 0.52344 0.52344 0.81641 1.2305 0.81641 1.9688v66.441c0 0.86328 0.69922 1.5625 1.5625 1.5625s1.5625-0.69922 1.5625-1.5625v-66.441c0-1.5664-0.62109-3.0703-1.7305-4.1758-1.1055-1.1055-2.6094-1.7305-4.1758-1.7305h-51.84c-1.5664 0-3.0703 0.62109-4.1758 1.7305-1.1055 1.1094-1.7305 2.6094-1.7305 4.1758v34.227c0 0.86328 0.69922 1.5625 1.5625 1.5625 0.86328 0 1.5625-0.69922 1.5625-1.5625z"/>
  <path d="m45.777 3.9062v28.148c0 1.5664 0.62109 3.0703 1.7305 4.1758 1.1094 1.1094 2.6094 1.7305 4.1758 1.7305h28.969c1.5664 0 3.0703-0.62109 4.1758-1.7305 1.1094-1.1055 1.7305-2.6094 1.7305-4.1758v-28.148c0-0.86328-0.69922-1.5625-1.5625-1.5625-0.86328 0-1.5625 0.69922-1.5625 1.5625v28.148c0 0.73828-0.29297 1.4453-0.81641 1.9648-0.52344 0.52344-1.2305 0.81641-1.9688 0.81641h-28.969c-0.73828 0-1.4453-0.29297-1.9648-0.81641-0.52344-0.52344-0.81641-1.2305-0.81641-1.9648v-28.148c0-0.86328-0.69922-1.5625-1.5625-1.5625-0.86328 0-1.5625 0.69922-1.5625 1.5625z"/>
  <path d="m51.68 52.238h28.969c0.73828 0 1.4453 0.29297 1.9648 0.81641 0.52344 0.52344 0.81641 1.2305 0.81641 1.9688v8.8711c0 0.86328 0.69922 1.5625 1.5625 1.5625 0.86328 0 1.5625-0.69922 1.5625-1.5625v-8.8711c0-1.5664-0.62109-3.0703-1.7305-4.1758-1.1055-1.1094-2.6094-1.7305-4.1758-1.7305h-28.969c-0.86328 0-1.5625 0.69922-1.5625 1.5625 0 0.86328 0.69922 1.5625 1.5625 1.5625z"/>
  <path d="m89.352 9.5508v7.293c0 0.86328 0.69922 1.5625 1.5625 1.5625 0.86328 0 1.5625-0.69922 1.5625-1.5625v-7.293c0-0.86328-0.69922-1.5625-1.5625-1.5625-0.86328 0-1.5625 0.69922-1.5625 1.5625z"/>
  <path d="m39.848 9.5508v7.293c0 0.86328 0.69922 1.5625 1.5625 1.5625 0.86328 0 1.5625-0.69922 1.5625-1.5625v-7.293c0-0.86328-0.69922-1.5625-1.5625-1.5625-0.86328 0-1.5625 0.69922-1.5625 1.5625z"/>
  <path d="m89.352 50.676v7.293c0 0.86328 0.69922 1.5625 1.5625 1.5625 0.86328 0 1.5625-0.69922 1.5625-1.5625v-7.293c0-0.86328-0.69922-1.5625-1.5625-1.5625-0.86328 0-1.5625 0.69922-1.5625 1.5625z"/>
  <path d="m89.352 29.105v7.293c0 0.86328 0.69922 1.5625 1.5625 1.5625 0.86328 0 1.5625-0.69922 1.5625-1.5625v-7.293c0-0.86328-0.69922-1.5625-1.5625-1.5625-0.86328 0-1.5625 0.69922-1.5625 1.5625z"/>
  <path d="m39.848 29.105v7.293c0 0.86328 0.69922 1.5625 1.5625 1.5625 0.86328 0 1.5625-0.69922 1.5625-1.5625v-7.293c0-0.86328-0.69922-1.5625-1.5625-1.5625-0.86328 0-1.5625 0.69922-1.5625 1.5625z"/>
  <path d="m11.984 49.918c4.5508-4.1602 10.613-6.6992 17.258-6.6992 14.129 0 25.598 11.469 25.598 25.598s-11.469 25.598-25.598 25.598c-14.129 0-25.598-11.469-25.598-25.598 0-5.6211 1.8164-10.82 4.8945-15.047 0.50781-0.69531 0.35547-1.6758-0.34375-2.1836-0.69531-0.50781-1.6758-0.35547-2.1836 0.34375-3.4531 4.7422-5.4922 10.578-5.4922 16.887 0 15.852 12.871 28.723 28.723 28.723 15.852 0 28.723-12.871 28.723-28.723 0-15.852-12.871-28.723-28.723-28.723-7.4609 0-14.258 2.8477-19.367 7.5195-0.63672 0.58203-0.67969 1.5703-0.097656 2.207 0.58203 0.63672 1.5703 0.67969 2.207 0.097657z"/>
  <path d="m29.242 63.582c-2.8906 0-5.2344 2.3477-5.2344 5.2344 0 2.8906 2.3477 5.2344 5.2344 5.2344 2.8867 0 5.2344-2.3477 5.2344-5.2344 0-2.8867-2.3477-5.2344-5.2344-5.2344zm0 3.125c1.1641 0 2.1094 0.94531 2.1094 2.1094 0 1.1641-0.94531 2.1094-2.1094 2.1094-1.1641 0-2.1094-0.94531-2.1094-2.1094 0-1.1641 0.94531-2.1094 2.1094-2.1094z"/>
  <path d="m29.242 48.48c-2.8906 0-5.2344 2.3477-5.2344 5.2344 0 2.8906 2.3477 5.2344 5.2344 5.2344 2.8867 0 5.2344-2.3477 5.2344-5.2344 0-2.8867-2.3477-5.2344-5.2344-5.2344zm0 3.125c1.1641 0 2.1094 0.94531 2.1094 2.1094 0 1.1641-0.94531 2.1094-2.1094 2.1094-1.1641 0-2.1094-0.94531-2.1094-2.1094 0-1.1641 0.94531-2.1094 2.1094-2.1094z"/>
  <path d="m29.242 79.062c-2.8906 0-5.2344 2.3477-5.2344 5.2344s2.3477 5.2344 5.2344 5.2344c2.8867 0 5.2344-2.3477 5.2344-5.2344 0-2.8906-2.3477-5.2344-5.2344-5.2344zm0 3.125c1.1641 0 2.1094 0.94531 2.1094 2.1094s-0.94531 2.1094-2.1094 2.1094c-1.1641 0-2.1094-0.94531-2.1094-2.1094s0.94531-2.1094 2.1094-2.1094z"/>
  <path d="m8.7188 69.008c0 2.8867 2.3477 5.2344 5.2344 5.2344 2.8906 0 5.2344-2.3477 5.2344-5.2344 0-2.8906-2.3477-5.2344-5.2344-5.2344s-5.2344 2.3477-5.2344 5.2344zm3.125 0c0-1.1641 0.94531-2.1094 2.1094-2.1094s2.1094 0.94531 2.1094 2.1094c0 1.1641-0.94531 2.1094-2.1094 2.1094s-2.1094-0.94531-2.1094-2.1094z"/>
  <path d="m39.301 69.008c0 2.8867 2.3477 5.2344 5.2344 5.2344 2.8867 0 5.2344-2.3477 5.2344-5.2344 0-2.8906-2.3477-5.2344-5.2344-5.2344-2.8906 0-5.2344 2.3477-5.2344 5.2344zm3.125 0c0-1.1641 0.94531-2.1094 2.1094-2.1094 1.1641 0 2.1094 0.94531 2.1094 2.1094 0 1.1641-0.94531 2.1094-2.1094 2.1094-1.1641 0-2.1094-0.94531-2.1094-2.1094z"/>
  <path d="m81.488 71.117-2.3086 6.2383-6.2383 2.3086c-1.4648 0.54297-2.4375 1.9414-2.4375 3.5039s0.97266 2.9609 2.4375 3.5039l6.2383 2.3086s2.3086 6.2383 2.3086 6.2383c0.54297 1.4648 1.9414 2.4375 3.5039 2.4375s2.9609-0.97266 3.5039-2.4375c0 0 2.3086-6.2383 2.3086-6.2383l6.2383-2.3086c1.4648-0.54297 2.4375-1.9414 2.4375-3.5039s-0.97266-2.9609-2.4375-3.5039l-6.2383-2.3086s-2.3086-6.2383-2.3086-6.2383c-0.54297-1.4648-1.9414-2.4375-3.5039-2.4375s-2.9609 0.97266-3.5039 2.4375zm2.9297 1.0859c0.089843-0.23828 0.31641-0.39844 0.57031-0.39844 0.25391 0 0.48438 0.16016 0.57031 0.39844l2.5586 6.9141c0.16016 0.42578 0.49609 0.76562 0.92578 0.92187 0 0 3.5898 1.3281 6.9102 2.5586 0.23828 0.089844 0.39844 0.31641 0.39844 0.57031 0 0.25391-0.16016 0.48438-0.39844 0.57031l-6.9102 2.5586c-0.42969 0.16016-0.76562 0.49609-0.92578 0.92188 0 0-1.3281 3.5898-2.5586 6.9141-0.089844 0.23828-0.31641 0.39844-0.57031 0.39844-0.25391 0-0.48438-0.16016-0.57031-0.39844l-2.5586-6.9141c-0.16016-0.42578-0.49609-0.76562-0.92188-0.92188 0 0-3.5898-1.3281-6.9141-2.5586-0.23828-0.089843-0.39844-0.31641-0.39844-0.57031 0-0.25391 0.16016-0.48438 0.39844-0.57031l6.9141-2.5586c0.42578-0.16016 0.76562-0.49609 0.92188-0.92187z"/>
 </g></svg>