<svg xmlns="http://www.w3.org/2000/svg" version="1.1" viewBox="-5.0 -10.0 105.0 105.0" fill="rgb(55, 55, 55)">
 <g>
  <path d="m50 63.078c7.9883 0 14.48-6.4883 14.48-14.469v-24.07c0-7.9688-6.4883-14.469-14.48-14.469-7.9688 0-14.469 6.4883-14.469 14.469v24.07c0 7.9688 6.4883 14.469 14.469 14.469z"/>
  <path d="m50 89.93c1.3516 0 2.4414-1.1094 2.4414-2.4414v-13.719c10.461-1.0586 19.379-8.8203 21.66-19.238 0.28906-1.3203-0.53906-2.6211-1.8594-2.9102-1.3203-0.28906-2.6211 0.55078-2.9102 1.8711-1.9688 8.9805-10.109 15.531-19.32 15.531-9.2305 0-17.359-6.5391-19.352-15.531-0.28125-1.3203-1.5781-2.1602-2.8984-1.8711-1.3203 0.28906-2.1484 1.5898-1.8711 2.9102 2.2891 10.422 11.199 18.16 21.66 19.238v13.719c0.007813 1.332 1.1094 2.4414 2.4492 2.4414z"/>
 </g>
</svg>