<svg xmlns="http://www.w3.org/2000/svg" xmlns:xlink="http://www.w3.org/1999/xlink" xmlns:xodm="http://www.corel.com/coreldraw/odm/2003" xml:space="preserve" version="1.1" style="shape-rendering:geometricPrecision;text-rendering:geometricPrecision;image-rendering:optimizeQuality;" viewBox="0 0 8.4666 8.4666" x="0px" y="0px" fill-rule="evenodd" clip-rule="evenodd"><defs><style type="text/css">
   
    .fil0 {fill:black;fill-rule:nonzero}
   
  </style></defs><g><path class="fil0" d="M5.7415 0.977c0.0012,-0.0061 0.0029,-0.0121 0.0051,-0.0178l0.0386 -0.1359 -0.4111 -0.2385 -0.2781 0.4793c-0.0029,0.0062 -0.0063,0.0121 -0.0102,0.0176l-0.7098 1.2234 0.7257 0.9239 0.6398 -2.252zm-1.5082 5.7873c0.0486,0 0.092,0.022 0.1211,0.0564l0.0001 -1.7901c-0.0291,0.0345 -0.0726,0.0564 -0.1212,0.0564 -0.0485,0 -0.0919,-0.0218 -0.121,-0.0562l-0.0001 1.7898c0.0291,-0.0343 0.0726,-0.0563 0.1211,-0.0563zm0.1211 0.2607c-0.0291,0.0344 -0.0725,0.0563 -0.1211,0.0563 -0.0485,0 -0.092,-0.0219 -0.1211,-0.0563l0 0.8996 0.2422 0 0 -0.8996zm-0.1211 -2.255c0.0486,0 0.0921,0.0219 0.1212,0.0564l0 -1.7902c-0.0291,0.0345 -0.0726,0.0564 -0.1212,0.0564 -0.0485,0 -0.092,-0.0218 -0.121,-0.0562l0 1.7898c0.0291,-0.0344 0.0725,-0.0562 0.121,-0.0562zm0 -1.9944c0.0486,0 0.0921,0.0219 0.1212,0.0564l0 -0.1708 -0.1217 -0.1549 -0.1205 0.1525 0 0.173c0.0291,-0.0344 0.0725,-0.0562 0.121,-0.0562zm0.3574 0.1863l-0.0001 4.9627 2.1905 0c0.0887,0 0.1693,-0.0363 0.2277,-0.0947 0.0584,-0.0584 0.0947,-0.139 0.0947,-0.2277l0 -6.1607c0,-0.0887 -0.0363,-0.1693 -0.0947,-0.2277 -0.0584,-0.0584 -0.139,-0.0947 -0.2277,-0.0947l-0.834 0 -0.6799 2.3932c-0.006,0.0251 -0.0202,0.0484 -0.042,0.0656 -0.0514,0.0404 -0.1259,0.0315 -0.1663,-0.0199l-0.4682 -0.5961zm-0.7147 4.9627l0.0001 -4.9668 -0.4939 0.6252c-0.0404,0.0511 -0.1147,0.0598 -0.1658,0.0194 -0.0206,-0.0163 -0.0343,-0.0381 -0.0407,-0.0617l-0.66 -2.4216 -0.8302 0c-0.0886,0 -0.1693,0.0363 -0.2277,0.0947 -0.0584,0.0584 -0.0947,0.1391 -0.0947,0.2277l0 6.1607c0,0.0886 0.0363,0.1693 0.0947,0.2277 0.0584,0.0584 0.1391,0.0947 0.2277,0.0947l2.1905 0zm-0.7312 -7.6192l2.1813 -0.0003c0.0048,-0.0002 0.0094,-0.0002 0.0142,0.0002l0 0.0001 0.0029 0.0002 0.0001 0.0001 0.0028 0.0002 0.0001 0.0001 0.0112 0.0019 0.0005 0.0002 0.0024 0.0005 0.0004 0.0002c0.0065,0.0017 0.0128,0.0039 0.019,0.0066l0.0001 0.0001 0.0052 0.0025 0.0002 0 0.0053 0.0029 0.5888 0.3416c0.0483,0.0254 0.074,0.082 0.0587,0.1367l-0.0235 0.0827 0.7666 0c0.154,0 0.294,0.063 0.3953,0.1643 0.1013,0.1013 0.1643,0.2413 0.1643,0.3953l0 6.1607c0,0.154 -0.063,0.294 -0.1643,0.3953 -0.1013,0.1013 -0.2413,0.1643 -0.3953,0.1643l-5.0956 0c-0.1538,0 -0.294,-0.063 -0.3953,-0.1643 -0.1013,-0.1013 -0.1643,-0.2415 -0.1643,-0.3953l0 -6.1607c0,-0.1538 0.063,-0.294 0.1643,-0.3953 0.1013,-0.1013 0.2415,-0.1643 0.3953,-0.1643l0.7655 0 -0.0228 -0.0837c-0.0151,-0.0556 0.0122,-0.1129 0.0622,-0.1374l0.5857 -0.3399c0.0216,-0.0125 0.0455,-0.0174 0.0687,-0.0155zm1.9812 0.2359l-1.7852 0.0003 0.2051 0.3534 1.3749 0 0.2052 -0.3537zm-0.3429 0.5909l-1.0995 0 0.5498 0.9475 0.5497 -0.9475zm-1.4034 -0.0523c-0.0033,-0.0049 -0.0062,-0.01 -0.0088,-0.0153l-0.2784 -0.4798 -0.4117 0.2389 0.0383 0.1406 0.0003 0.0009 0.0008 0.0028 0.0016 0.0063 0.6206 2.2783 0.7484 -0.9474 -0.7095 -1.2229 -0.0016 -0.0024z"/></g></svg>