<svg xmlns="http://www.w3.org/2000/svg" version="1.1" viewBox="-5.0 -10.0 110.0 110.0">
 <path d="m50.973 9.9492c-0.48828-0.53516-1.457-0.53516-1.9453 0l-39.008 42.48c-0.96875 1.0547-0.25 2.0898 0.67969 2.0898h10.027c1.5391 0 2.7891 1.2461 2.7891 2.7891v31.566c0 0.87891 0.70312 1.5625 1.5703 1.5625h12.676v-18.82c0-3.918 3.2188-7.1445 7.1484-7.1445h10.184c3.9336 0 7.1484 3.2266 7.1484 7.1445v18.82h12.676c0.86719 0 1.5703-0.68359 1.5703-1.5625v-31.566c0-1.5391 1.25-2.7891 2.7891-2.7891h10.027c0.92969 0 1.6484-1.0352 0.67969-2.0898zm-6.043-3.7695c2.6875-2.9258 7.4531-2.9297 10.141 0l39.008 42.48c4.2773 4.6562 0.93359 11.438-4.7773 11.438h-7.2383v28.777c0 3.918-3.2148 7.1406-7.1484 7.1406h-15.465c-1.5391 0-2.7891-1.2461-2.7891-2.7891v-21.609c0-0.87891-0.70312-1.5664-1.5703-1.5664h-10.184c-0.86719 0-1.5703 0.68359-1.5703 1.5664v21.609c0 1.5391-1.2461 2.7891-2.7891 2.7891h-15.465c-3.9336 0-7.1484-3.2227-7.1484-7.1406v-28.777h-7.2344c-5.7109 0-9.0547-6.7812-4.7773-11.438z" fill-rule="evenodd"/></svg>