<svg xmlns="http://www.w3.org/2000/svg" viewBox="0 0 64 64" fill-rule="evenodd" clip-rule="evenodd" x="0px" y="0px"><path d="M13.012 41c4.966.006 8.988 4.033 8.988 9v4c0 .552-.448 1-1 1h-16c-.552 0-1-.448-1-1v-4c0-4.967 4.036-8.994 9.001-9h.011zm6.988 9v3h-14v-3c0-3.866 3.134-7 7-7s7 3.134 7 7zm35-5v-3c0-.552-.448-1-1-1h-9c-.552 0-1 .448-1 1v3h-19c-.552 0-1 .448-1 1s.448 1 1 1h35c.552 0 1-.448 1-1v-36c0-.552-.448-1-1-1h-56c-.552 0-1 .448-1 1v32.5c0 .552.448 1 1 1s1-.448 1-1v-31.5h54v34h-4zm-9 0v-2h7v2h-7zm-22.9-2.293l9.607-9.607c.39-.39.39-1.024 0-1.414-.39-.39-1.024-.39-1.414 0l-9.607 9.607c-.39.39-.39 1.024 0 1.414.39.39 1.024.39 1.414 0zm-10.1-15.707c-3.311 0-6 2.689-6 6s2.689 6 6 6 6-2.689 6-6-2.689-6-6-6zm0 2c2.208 0 4 1.792 4 4s-1.792 4-4 4-4-1.792-4-4 1.792-4 4-4zm29.5-4h12.5c.552 0 1-.448 1-1s-.448-1-1-1h-12.5c-.552 0-1 .448-1 1s.448 1 1 1zm-22.5-8h35c.552 0 1-.448 1-1s-.448-1-1-1h-35c-.552 0-1 .448-1 1s.448 1 1 1z"/></svg>